<svg xmlns="http://www.w3.org/2000/svg" xmlns:xlink="http://www.w3.org/1999/xlink" width="100" zoomAndPan="magnify" viewBox="0 0 75 74.999997" height="100" preserveAspectRatio="xMidYMid meet" version="1.0"><path fill="#1a4789" d="M 75 63.59375 C 75 69.890625 69.898438 74.992188 63.605469 74.992188 L 11.398438 74.992188 C 5.105469 74.992188 0.00390625 69.890625 0.00390625 63.59375 L 0.00390625 11.390625 C 0.00390625 5.097656 5.105469 -0.0078125 11.398438 -0.0078125 L 63.605469 -0.0078125 C 69.898438 -0.0078125 75 5.097656 75 11.390625 Z M 75 63.59375 " fill-opacity="1" fill-rule="nonzero"/><path fill="#ffffff" d="M 49.695312 43.320312 L 50.910156 33.917969 L 41.597656 33.917969 L 41.597656 27.914062 C 41.597656 25.191406 42.355469 23.335938 46.261719 23.335938 L 51.234375 23.332031 L 51.234375 14.921875 C 50.375 14.808594 47.421875 14.550781 43.980469 14.550781 C 36.800781 14.550781 31.886719 18.933594 31.886719 26.980469 L 31.886719 33.917969 L 23.769531 33.917969 L 23.769531 43.320312 L 31.886719 43.320312 L 31.886719 67.449219 L 41.597656 67.449219 L 41.597656 43.320312 Z M 49.695312 43.320312 " fill-opacity="1" fill-rule="nonzero"/></svg>