<svg xmlns="http://www.w3.org/2000/svg" xmlns:xlink="http://www.w3.org/1999/xlink" width="100" zoomAndPan="magnify" viewBox="0 0 75 74.999997" height="100" preserveAspectRatio="xMidYMid meet" version="1.0"><path fill="#46cc6b" d="M 75.003906 37.503906 C 75.003906 58.210938 58.210938 75.003906 37.503906 75.003906 C 30.164062 75.003906 23.320312 72.894531 17.539062 69.253906 L 0 72.707031 L 7.105469 59.464844 C 2.636719 53.292969 0 45.703125 0 37.503906 C 0 16.792969 16.792969 0 37.503906 0 C 58.210938 0 75.003906 16.792969 75.003906 37.503906 Z M 75.003906 37.503906 " fill-opacity="1" fill-rule="nonzero"/><path fill="#ffffff" d="M 68.03125 37.503906 C 68.03125 38.5 67.984375 39.5 67.882812 40.496094 C 67.785156 41.488281 67.640625 42.476562 67.445312 43.457031 C 67.25 44.4375 67.007812 45.40625 66.71875 46.363281 C 66.425781 47.320312 66.089844 48.261719 65.707031 49.183594 C 65.324219 50.109375 64.898438 51.011719 64.425781 51.894531 C 63.957031 52.777344 63.441406 53.632812 62.886719 54.464844 C 62.332031 55.292969 61.734375 56.097656 61.101562 56.871094 C 60.46875 57.644531 59.796875 58.382812 59.089844 59.089844 C 58.382812 59.796875 57.644531 60.46875 56.871094 61.101562 C 56.097656 61.734375 55.292969 62.332031 54.464844 62.886719 C 53.632812 63.441406 52.777344 63.957031 51.894531 64.425781 C 51.011719 64.898438 50.109375 65.324219 49.183594 65.707031 C 48.261719 66.089844 47.320312 66.425781 46.363281 66.71875 C 45.40625 67.007812 44.4375 67.25 43.457031 67.445312 C 42.476562 67.640625 41.488281 67.785156 40.496094 67.882812 C 39.5 67.984375 38.5 68.03125 37.503906 68.03125 C 36.503906 68.03125 35.503906 67.984375 34.507812 67.882812 C 33.515625 67.785156 32.527344 67.640625 31.546875 67.445312 C 30.566406 67.25 29.597656 67.007812 28.640625 66.71875 C 27.683594 66.425781 26.742188 66.089844 25.820312 65.707031 C 24.894531 65.324219 23.992188 64.898438 23.109375 64.425781 C 22.230469 63.957031 21.371094 63.441406 20.539062 62.886719 C 19.710938 62.332031 18.90625 61.734375 18.132812 61.101562 C 17.363281 60.46875 16.621094 59.796875 15.914062 59.089844 C 15.207031 58.382812 14.535156 57.644531 13.902344 56.871094 C 13.269531 56.097656 12.671875 55.292969 12.117188 54.464844 C 11.5625 53.632812 11.046875 52.777344 10.578125 51.894531 C 10.105469 51.011719 9.679688 50.109375 9.296875 49.183594 C 8.914062 48.261719 8.578125 47.320312 8.285156 46.363281 C 7.996094 45.40625 7.753906 44.4375 7.558594 43.457031 C 7.363281 42.476562 7.21875 41.488281 7.121094 40.496094 C 7.023438 39.5 6.972656 38.5 6.972656 37.503906 C 6.972656 36.503906 7.023438 35.503906 7.121094 34.507812 C 7.21875 33.515625 7.363281 32.527344 7.558594 31.546875 C 7.753906 30.566406 7.996094 29.597656 8.285156 28.640625 C 8.578125 27.683594 8.914062 26.742188 9.296875 25.820312 C 9.679688 24.894531 10.105469 23.992188 10.578125 23.109375 C 11.046875 22.230469 11.5625 21.371094 12.117188 20.539062 C 12.671875 19.710938 13.269531 18.90625 13.902344 18.132812 C 14.535156 17.363281 15.207031 16.621094 15.914062 15.914062 C 16.621094 15.207031 17.363281 14.535156 18.132812 13.902344 C 18.90625 13.269531 19.710938 12.671875 20.539062 12.117188 C 21.371094 11.5625 22.230469 11.046875 23.109375 10.578125 C 23.992188 10.105469 24.894531 9.679688 25.820312 9.296875 C 26.742188 8.914062 27.683594 8.578125 28.640625 8.285156 C 29.597656 7.996094 30.566406 7.753906 31.546875 7.558594 C 32.527344 7.363281 33.515625 7.21875 34.507812 7.121094 C 35.503906 7.023438 36.503906 6.972656 37.503906 6.972656 C 38.5 6.972656 39.5 7.023438 40.496094 7.121094 C 41.488281 7.21875 42.476562 7.363281 43.457031 7.558594 C 44.4375 7.753906 45.40625 7.996094 46.363281 8.285156 C 47.320312 8.578125 48.261719 8.914062 49.183594 9.296875 C 50.109375 9.679688 51.011719 10.105469 51.894531 10.578125 C 52.777344 11.046875 53.632812 11.5625 54.464844 12.117188 C 55.292969 12.671875 56.097656 13.269531 56.871094 13.902344 C 57.644531 14.535156 58.382812 15.207031 59.089844 15.914062 C 59.796875 16.621094 60.46875 17.363281 61.101562 18.132812 C 61.734375 18.90625 62.332031 19.710938 62.886719 20.539062 C 63.441406 21.371094 63.957031 22.230469 64.425781 23.109375 C 64.898438 23.992188 65.324219 24.894531 65.707031 25.820312 C 66.089844 26.742188 66.425781 27.683594 66.71875 28.640625 C 67.007812 29.597656 67.25 30.566406 67.445312 31.546875 C 67.640625 32.527344 67.785156 33.515625 67.882812 34.507812 C 67.984375 35.503906 68.03125 36.503906 68.03125 37.503906 Z M 68.03125 37.503906 " fill-opacity="1" fill-rule="nonzero"/><path fill="#46cc6b" d="M 62.140625 37.503906 C 62.140625 38.308594 62.101562 39.113281 62.023438 39.917969 C 61.945312 40.71875 61.824219 41.515625 61.667969 42.308594 C 61.511719 43.101562 61.316406 43.882812 61.082031 44.65625 C 60.847656 45.425781 60.574219 46.1875 60.265625 46.929688 C 59.957031 47.675781 59.613281 48.40625 59.234375 49.117188 C 58.851562 49.828125 58.4375 50.519531 57.988281 51.191406 C 57.539062 51.863281 57.0625 52.507812 56.550781 53.132812 C 56.035156 53.757812 55.496094 54.355469 54.925781 54.925781 C 54.355469 55.496094 53.757812 56.035156 53.132812 56.550781 C 52.507812 57.0625 51.863281 57.539062 51.191406 57.988281 C 50.519531 58.4375 49.828125 58.851562 49.117188 59.234375 C 48.40625 59.613281 47.675781 59.957031 46.929688 60.265625 C 46.1875 60.574219 45.425781 60.847656 44.65625 61.082031 C 43.882812 61.316406 43.101562 61.511719 42.308594 61.667969 C 41.515625 61.824219 40.71875 61.945312 39.917969 62.023438 C 39.113281 62.101562 38.308594 62.140625 37.503906 62.140625 C 36.695312 62.140625 35.890625 62.101562 35.085938 62.023438 C 34.285156 61.945312 33.488281 61.824219 32.695312 61.667969 C 31.902344 61.511719 31.121094 61.316406 30.347656 61.082031 C 29.578125 60.847656 28.816406 60.574219 28.074219 60.265625 C 27.328125 59.957031 26.597656 59.613281 25.886719 59.234375 C 25.175781 58.851562 24.484375 58.4375 23.8125 57.988281 C 23.140625 57.539062 22.496094 57.0625 21.871094 56.550781 C 21.246094 56.035156 20.648438 55.496094 20.078125 54.925781 C 19.507812 54.355469 18.96875 53.757812 18.457031 53.132812 C 17.941406 52.507812 17.464844 51.863281 17.015625 51.191406 C 16.566406 50.519531 16.152344 49.828125 15.773438 49.117188 C 15.390625 48.40625 15.046875 47.675781 14.738281 46.929688 C 14.429688 46.1875 14.15625 45.425781 13.921875 44.65625 C 13.6875 43.882812 13.492188 43.101562 13.335938 42.308594 C 13.179688 41.515625 13.058594 40.71875 12.980469 39.917969 C 12.902344 39.113281 12.863281 38.308594 12.863281 37.503906 C 12.863281 36.695312 12.902344 35.890625 12.980469 35.085938 C 13.058594 34.285156 13.179688 33.488281 13.335938 32.695312 C 13.492188 31.902344 13.6875 31.121094 13.921875 30.347656 C 14.15625 29.578125 14.429688 28.816406 14.738281 28.074219 C 15.046875 27.328125 15.390625 26.597656 15.773438 25.886719 C 16.152344 25.175781 16.566406 24.484375 17.015625 23.8125 C 17.464844 23.140625 17.941406 22.496094 18.457031 21.871094 C 18.96875 21.246094 19.507812 20.648438 20.078125 20.078125 C 20.648438 19.507812 21.246094 18.96875 21.871094 18.457031 C 22.496094 17.941406 23.140625 17.464844 23.8125 17.015625 C 24.484375 16.566406 25.175781 16.152344 25.886719 15.773438 C 26.597656 15.390625 27.328125 15.046875 28.074219 14.738281 C 28.816406 14.429688 29.578125 14.15625 30.347656 13.921875 C 31.121094 13.6875 31.902344 13.492188 32.695312 13.335938 C 33.488281 13.179688 34.285156 13.058594 35.085938 12.980469 C 35.890625 12.902344 36.695312 12.863281 37.503906 12.863281 C 38.308594 12.863281 39.113281 12.902344 39.917969 12.980469 C 40.71875 13.058594 41.515625 13.179688 42.308594 13.335938 C 43.101562 13.492188 43.882812 13.6875 44.65625 13.921875 C 45.425781 14.15625 46.1875 14.429688 46.929688 14.738281 C 47.675781 15.046875 48.40625 15.390625 49.117188 15.773438 C 49.828125 16.152344 50.519531 16.566406 51.191406 17.015625 C 51.863281 17.464844 52.507812 17.941406 53.132812 18.457031 C 53.757812 18.96875 54.355469 19.507812 54.925781 20.078125 C 55.496094 20.648438 56.035156 21.246094 56.550781 21.871094 C 57.0625 22.496094 57.539062 23.140625 57.988281 23.8125 C 58.4375 24.484375 58.851562 25.175781 59.234375 25.886719 C 59.613281 26.597656 59.957031 27.328125 60.265625 28.074219 C 60.574219 28.816406 60.847656 29.578125 61.082031 30.347656 C 61.316406 31.121094 61.511719 31.902344 61.667969 32.695312 C 61.824219 33.488281 61.945312 34.285156 62.023438 35.085938 C 62.101562 35.890625 62.140625 36.695312 62.140625 37.503906 Z M 62.140625 37.503906 " fill-opacity="1" fill-rule="nonzero"/><path fill="#ffffff" d="M 33.636719 31.582031 L 32.304688 27.605469 C 31.707031 25.820312 29.78125 24.859375 27.996094 25.457031 C 27.875 25.496094 27.757812 25.542969 27.640625 25.597656 L 25.492188 26.601562 C 24.050781 27.273438 23.265625 28.855469 23.601562 30.410156 C 24.949219 36.632812 29.894531 51.527344 46.589844 53.382812 C 47.941406 53.535156 49.257812 52.863281 49.929688 51.679688 L 51.035156 49.71875 C 51.960938 48.085938 51.386719 46.007812 49.75 45.082031 L 49.726562 45.070312 L 46.753906 43.414062 C 45.429688 42.679688 43.777344 42.90625 42.703125 43.972656 C 41.636719 45.03125 40 45.265625 38.679688 44.542969 C 36.867188 43.550781 34.390625 41.855469 32.652344 39.347656 C 31.847656 38.199219 31.832031 36.679688 32.605469 35.511719 L 33.246094 34.550781 C 33.828125 33.675781 33.972656 32.578125 33.636719 31.582031 Z M 33.636719 31.582031 " fill-opacity="1" fill-rule="nonzero"/></svg>