<svg xmlns="http://www.w3.org/2000/svg" xmlns:xlink="http://www.w3.org/1999/xlink" width="100" zoomAndPan="magnify" viewBox="0 0 75 74.999997" height="100" preserveAspectRatio="xMidYMid meet" version="1.0"><defs><clipPath id="6610795127"><path d="M 0 0.046875 L 75 0.046875 L 75 75 L 0 75 Z M 0 0.046875 " clip-rule="nonzero"/></clipPath></defs><g clip-path="url(#6610795127)"><path fill="#000000" d="M 74.972656 37.546875 C 74.972656 38.773438 74.910156 40 74.792969 41.222656 C 74.671875 42.441406 74.492188 43.65625 74.25 44.859375 C 74.011719 46.066406 73.714844 47.253906 73.359375 48.429688 C 73 49.605469 72.589844 50.761719 72.121094 51.894531 C 71.648438 53.03125 71.125 54.140625 70.546875 55.222656 C 69.96875 56.304688 69.339844 57.355469 68.65625 58.378906 C 67.976562 59.398438 67.246094 60.382812 66.464844 61.332031 C 65.6875 62.285156 64.863281 63.191406 63.996094 64.0625 C 63.128906 64.929688 62.21875 65.753906 61.273438 66.53125 C 60.324219 67.3125 59.339844 68.042969 58.316406 68.722656 C 57.296875 69.40625 56.246094 70.035156 55.164062 70.617188 C 54.082031 71.195312 52.972656 71.71875 51.839844 72.1875 C 50.707031 72.660156 49.550781 73.074219 48.375 73.429688 C 47.203125 73.785156 46.011719 74.082031 44.808594 74.324219 C 43.605469 74.5625 42.394531 74.742188 41.171875 74.863281 C 39.949219 74.984375 38.726562 75.042969 37.5 75.042969 C 36.273438 75.042969 35.046875 74.984375 33.828125 74.863281 C 32.605469 74.742188 31.390625 74.5625 30.1875 74.324219 C 28.984375 74.082031 27.796875 73.785156 26.621094 73.429688 C 25.445312 73.074219 24.292969 72.660156 23.160156 72.1875 C 22.023438 71.71875 20.917969 71.195312 19.835938 70.617188 C 18.753906 70.035156 17.699219 69.40625 16.679688 68.722656 C 15.660156 68.042969 14.675781 67.3125 13.726562 66.53125 C 12.777344 65.753906 11.871094 64.929688 11.003906 64.0625 C 10.132812 63.191406 9.3125 62.285156 8.53125 61.332031 C 7.753906 60.382812 7.023438 59.398438 6.34375 58.378906 C 5.660156 57.355469 5.03125 56.304688 4.453125 55.222656 C 3.871094 54.140625 3.347656 53.03125 2.878906 51.894531 C 2.410156 50.761719 1.996094 49.605469 1.640625 48.429688 C 1.285156 47.253906 0.984375 46.066406 0.746094 44.859375 C 0.507812 43.65625 0.328125 42.441406 0.207031 41.222656 C 0.0859375 40 0.0273438 38.773438 0.0273438 37.546875 C 0.0273438 36.316406 0.0859375 35.09375 0.207031 33.871094 C 0.328125 32.648438 0.507812 31.433594 0.746094 30.230469 C 0.984375 29.023438 1.285156 27.835938 1.640625 26.660156 C 1.996094 25.484375 2.410156 24.328125 2.878906 23.195312 C 3.347656 22.0625 3.871094 20.953125 4.453125 19.867188 C 5.03125 18.785156 5.660156 17.734375 6.34375 16.710938 C 7.023438 15.691406 7.753906 14.707031 8.53125 13.757812 C 9.3125 12.808594 10.132812 11.898438 11.003906 11.03125 C 11.871094 10.160156 12.777344 9.335938 13.726562 8.558594 C 14.675781 7.78125 15.660156 7.046875 16.679688 6.367188 C 17.699219 5.683594 18.753906 5.054688 19.835938 4.476562 C 20.917969 3.894531 22.023438 3.371094 23.160156 2.902344 C 24.292969 2.429688 25.445312 2.019531 26.621094 1.660156 C 27.796875 1.304688 28.984375 1.007812 30.1875 0.765625 C 31.390625 0.527344 32.605469 0.347656 33.828125 0.226562 C 35.046875 0.105469 36.273438 0.046875 37.5 0.046875 C 38.726562 0.046875 39.949219 0.105469 41.171875 0.226562 C 42.394531 0.347656 43.605469 0.527344 44.808594 0.765625 C 46.011719 1.007812 47.203125 1.304688 48.375 1.660156 C 49.550781 2.019531 50.707031 2.429688 51.839844 2.902344 C 52.972656 3.371094 54.082031 3.894531 55.164062 4.476562 C 56.246094 5.054688 57.296875 5.683594 58.316406 6.367188 C 59.339844 7.046875 60.324219 7.78125 61.273438 8.558594 C 62.21875 9.335938 63.128906 10.160156 63.996094 11.03125 C 64.863281 11.898438 65.6875 12.808594 66.464844 13.757812 C 67.246094 14.707031 67.976562 15.691406 68.65625 16.710938 C 69.339844 17.734375 69.96875 18.785156 70.546875 19.867188 C 71.125 20.953125 71.648438 22.0625 72.121094 23.195312 C 72.589844 24.328125 73 25.484375 73.359375 26.660156 C 73.714844 27.835938 74.011719 29.023438 74.25 30.230469 C 74.492188 31.433594 74.671875 32.648438 74.792969 33.871094 C 74.910156 35.09375 74.972656 36.316406 74.972656 37.546875 Z M 74.972656 37.546875 " fill-opacity="1" fill-rule="nonzero"/></g><path fill="#ffffff" d="M 42.121094 34.023438 L 60.445312 12.882812 L 56.128906 12.882812 L 40.183594 31.234375 L 27.742188 13.347656 L 13.574219 13.347656 L 32.34375 40.25 L 13.277344 62.191406 L 17.699219 62.191406 L 34.296875 43.046875 L 47.664062 62.210938 L 61.722656 62.210938 Z M 36.3125 40.71875 L 34.363281 37.929688 L 19.296875 16.332031 L 26.183594 16.332031 L 38.164062 33.554688 L 40.101562 36.347656 L 56.011719 59.222656 L 49.21875 59.222656 Z M 36.3125 40.71875 " fill-opacity="1" fill-rule="nonzero"/></svg>